<?xml version="1.0" standalone="no"?>
<!DOCTYPE svg PUBLIC "-//W3C//DTD SVG 20010904//EN"
 "http://www.w3.org/TR/2001/REC-SVG-20010904/DTD/svg10.dtd">
<svg version="1.0" xmlns="http://www.w3.org/2000/svg"
 width="484.000000pt" height="484.000000pt" viewBox="0 0 484.000000 484.000000"
 preserveAspectRatio="xMidYMid meet">
<metadata>
Created by potrace 1.14, written by Peter Selinger 2001-2017
</metadata>
<g transform="translate(0.000000,484.000000) scale(0.100000,-0.100000)"
fill="#000000" stroke="none">
<path d="M690 4815 c-36 -7 -96 -25 -135 -40 -38 -15 -76 -27 -82 -28 -7 0
-13 -3 -13 -7 0 -4 -28 -24 -61 -45 -86 -53 -191 -154 -248 -241 -27 -40 -52
-70 -55 -67 -3 4 -6 0 -6 -8 0 -8 -14 -50 -31 -93 -62 -159 -59 -73 -59 -1871
0 -1798 -3 -1712 59 -1871 17 -43 31 -85 31 -93 0 -8 3 -12 6 -8 3 3 28 -27
55 -67 91 -136 251 -264 404 -321 150 -57 78 -55 1871 -55 1807 0 1728 -2
1869 57 33 13 74 28 90 33 17 4 26 8 21 9 -5 1 20 20 55 42 81 53 185 156 236
236 22 34 44 59 48 55 5 -4 5 -2 2 4 -3 6 5 35 19 64 14 30 35 86 47 125 l22
70 3 1680 c3 1848 6 1749 -59 1915 -18 47 -32 89 -30 95 1 5 0 7 -4 3 -4 -4
-29 26 -55 65 -123 185 -329 321 -548 363 -105 20 -3352 19 -3452 -1z m2162
-217 c9 -7 31 -42 49 -78 18 -36 38 -69 46 -73 7 -4 13 -12 13 -16 0 -5 25
-52 55 -106 30 -53 55 -101 55 -106 0 -5 5 -9 10 -9 6 0 10 -5 10 -11 0 -6 -8
-8 -17 -5 -10 3 -47 7 -82 8 l-64 2 -32 51 c-17 27 -39 66 -49 85 -30 60 -63
112 -77 121 -8 5 -175 9 -372 9 l-357 0 -45 -69 c-25 -38 -45 -74 -45 -79 0
-5 -7 -15 -16 -23 -9 -7 -22 -30 -31 -50 l-14 -37 -82 -4 c-45 -2 -83 -3 -85
-2 -2 1 7 19 21 41 13 21 27 45 30 53 4 8 19 33 32 55 14 22 31 51 38 65 7 14
25 45 41 69 16 25 35 59 42 77 7 18 19 34 26 37 7 3 209 6 449 6 334 1 439 -2
451 -11z m238 -526 c33 -17 70 -42 82 -54 69 -68 98 -112 118 -176 20 -62 21
-75 10 -127 -20 -97 -112 -166 -216 -164 -50 1 -91 25 -131 78 -65 85 -31 199
54 183 16 -3 32 -20 49 -53 18 -37 30 -49 47 -49 32 0 47 18 47 57 0 43 -19
79 -62 119 -132 123 -214 96 -390 -124 -16 -19 -28 -38 -28 -42 0 -3 14 -22
31 -41 60 -66 124 -215 134 -314 9 -85 11 -88 47 -103 83 -34 218 -108 273
-148 33 -24 71 -52 85 -62 13 -9 36 -28 50 -41 14 -13 35 -30 48 -38 12 -9 22
-22 22 -29 0 -8 4 -14 8 -14 8 0 82 -95 82 -106 0 -4 6 -12 14 -18 42 -33 152
-292 175 -411 21 -106 19 -311 -5 -426 -14 -71 -227 -99 -454 -61 -73 13 -107
15 -112 8 -4 -6 -7 -56 -7 -111 0 -55 -2 -120 -6 -145 -18 -132 -29 -196 -35
-205 -4 -5 -13 -32 -20 -58 -29 -109 -153 -312 -257 -423 -86 -91 -286 -224
-339 -224 -33 0 -83 24 -165 79 -76 51 -229 190 -229 208 0 5 -10 18 -22 29
-22 20 -108 147 -108 160 0 4 -6 15 -13 23 -12 15 -21 37 -75 181 -31 80 -41
152 -48 335 l-7 164 -51 -6 c-28 -3 -59 -10 -69 -15 -32 -16 -260 -22 -314 -8
-100 26 -113 32 -127 59 -14 26 -35 189 -35 256 1 55 27 209 43 255 9 25 16
51 16 58 0 28 95 222 144 294 41 59 134 160 212 227 93 81 288 192 365 208 16
3 31 9 34 13 2 3 11 53 19 110 17 113 45 183 109 269 46 62 50 97 15 134 -13
13 -37 42 -55 64 -47 60 -131 96 -208 91 -33 -2 -73 -11 -90 -19 -42 -20 -86
-88 -92 -143 -5 -41 -3 -46 20 -57 36 -16 54 -6 72 39 19 46 49 63 96 53 61
-12 65 -84 8 -174 -34 -55 -75 -77 -141 -77 -133 0 -196 70 -198 220 0 26 8
61 19 80 64 121 68 125 145 177 60 40 89 53 132 59 120 15 213 -23 327 -134
42 -42 89 -93 104 -115 26 -37 29 -38 67 -33 70 10 139 10 180 -2 40 -11 40
-11 80 36 210 243 365 308 526 224z m-1684 -184 c-3 -18 -9 -56 -13 -85 l-6
-53 -286 -2 c-281 -3 -286 -3 -296 -24 -6 -12 -16 -28 -22 -35 -6 -8 -26 -41
-43 -74 -18 -33 -39 -67 -46 -76 -8 -8 -14 -19 -14 -24 0 -4 -10 -22 -23 -39
-13 -17 -38 -60 -56 -96 -18 -36 -38 -72 -45 -80 -7 -8 -20 -32 -30 -52 -9
-21 -20 -38 -24 -38 -11 0 -32 -52 -32 -80 0 -14 20 -59 45 -99 25 -40 45 -75
45 -77 0 -2 12 -23 27 -47 15 -23 37 -62 50 -87 13 -25 32 -60 43 -77 40 -67
56 -92 92 -156 21 -36 45 -68 54 -71 8 -3 70 -6 136 -6 l120 0 -6 -27 c-3 -16
-8 -46 -12 -68 -12 -80 -3 -75 -134 -75 l-119 0 -28 -58 c-16 -32 -39 -72 -51
-89 -12 -17 -22 -34 -22 -37 0 -4 -12 -25 -26 -47 -14 -23 -37 -62 -51 -87
-14 -26 -29 -49 -33 -52 -3 -3 -18 -28 -31 -56 -14 -28 -35 -64 -46 -80 -11
-16 -30 -49 -42 -74 -21 -43 -21 -46 -4 -77 10 -18 21 -33 24 -33 4 0 9 -10
13 -22 3 -13 21 -46 40 -75 19 -29 38 -62 41 -74 4 -13 11 -27 16 -33 19 -23
59 -87 59 -95 0 -5 12 -25 26 -46 14 -21 37 -60 52 -87 45 -83 48 -87 67 -108
17 -19 30 -20 365 -20 l347 0 34 47 c19 26 42 64 51 83 30 62 63 113 73 113 6
0 27 -34 48 -77 l37 -78 -30 -63 c-16 -34 -37 -65 -45 -69 -20 -7 -19 -42 3
-64 9 -10 29 -42 44 -72 16 -30 34 -64 40 -74 52 -81 98 -157 98 -164 0 -4 27
-52 60 -106 33 -54 60 -101 60 -104 0 -3 11 -20 26 -39 l25 -33 333 0 c207 0
344 4 363 11 21 7 36 23 48 50 10 21 21 39 24 39 3 0 12 15 20 32 8 18 29 57
48 86 18 29 33 55 33 58 0 3 16 29 35 59 19 30 51 85 71 122 20 38 44 82 55
98 34 54 42 79 30 95 -10 13 -23 35 -68 113 -9 16 -7 26 12 56 12 20 31 57 40
83 10 27 20 48 24 48 6 0 28 -35 66 -105 33 -63 66 -119 77 -132 8 -10 93 -13
364 -13 l354 0 26 43 c14 23 37 58 50 78 13 19 24 41 24 49 0 7 6 21 14 29 8
9 29 43 47 76 17 33 37 67 44 75 6 8 19 31 29 50 20 43 39 73 48 80 4 3 15 21
23 40 9 19 25 50 35 68 17 31 17 38 4 75 -8 23 -20 48 -27 57 -7 8 -23 35 -36
60 -13 25 -30 52 -37 61 -8 8 -14 19 -14 22 0 4 -16 32 -36 62 -19 31 -52 87
-72 125 -20 38 -54 98 -75 134 l-38 66 -129 0 -130 0 0 38 c0 20 -4 54 -9 75
l-9 37 102 0 c118 1 180 23 206 75 8 17 28 53 45 80 16 28 39 66 50 86 19 35
36 64 88 151 12 21 37 66 56 100 18 35 37 65 41 68 33 23 39 106 10 143 -11
14 -20 30 -20 35 0 5 -15 32 -33 58 -18 27 -41 65 -50 84 -10 19 -27 51 -39
70 -11 19 -32 55 -46 80 -14 25 -28 47 -31 50 -3 3 -14 21 -24 40 -28 56 -57
104 -76 123 -16 17 -40 18 -284 17 l-266 -1 -11 43 c-7 23 -23 58 -36 77 -13
20 -24 39 -24 43 0 5 159 8 353 8 l352 0 21 -33 c35 -53 104 -173 104 -180 0
-7 49 -86 60 -97 3 -3 13 -21 23 -40 9 -19 28 -53 42 -75 14 -22 30 -51 35
-64 6 -13 19 -36 29 -50 11 -15 30 -47 43 -71 44 -82 70 -125 79 -134 16 -17
9 -80 -11 -106 -11 -14 -20 -29 -20 -33 0 -4 -16 -32 -35 -62 -19 -30 -46 -76
-61 -102 -14 -26 -39 -70 -55 -98 -15 -27 -33 -59 -39 -70 -5 -11 -25 -45 -44
-75 -19 -30 -47 -80 -62 -110 -15 -30 -34 -63 -42 -72 -17 -20 -5 -48 61 -151
20 -31 37 -62 37 -67 0 -9 47 -87 60 -100 3 -3 13 -21 23 -40 9 -19 26 -50 37
-67 76 -124 120 -202 120 -211 0 -5 10 -21 21 -36 34 -44 20 -97 -61 -221 -27
-42 -90 -153 -90 -160 0 -3 -15 -29 -33 -58 -18 -29 -41 -69 -52 -89 -11 -21
-23 -38 -27 -38 -5 0 -8 -4 -8 -9 0 -12 -121 -222 -137 -239 -7 -7 -13 -18
-13 -23 0 -5 -164 -9 -410 -9 -382 0 -411 -1 -418 -17 -6 -16 -54 -98 -82
-143 -11 -16 -65 -113 -113 -200 -16 -30 -36 -62 -43 -71 -8 -8 -14 -19 -14
-23 0 -4 -16 -31 -34 -61 -19 -30 -45 -73 -57 -97 -12 -24 -31 -53 -42 -65
l-20 -23 -445 0 c-400 0 -447 2 -464 17 -10 9 -18 22 -18 30 0 7 -4 13 -9 13
-5 0 -14 15 -22 32 -7 18 -22 47 -34 63 -12 17 -27 44 -35 60 -8 17 -25 44
-37 61 -13 17 -23 35 -23 40 0 8 -62 116 -100 174 -5 8 -17 29 -25 45 -9 17
-21 39 -28 50 -6 11 -25 42 -40 68 l-28 47 -408 0 -408 0 -12 22 c-7 13 -23
41 -36 63 -24 40 -29 49 -80 140 -15 28 -31 55 -35 60 -5 6 -19 30 -32 55 -28
51 -46 82 -112 193 -25 43 -46 80 -46 84 0 3 -11 21 -25 39 -14 18 -25 38 -25
44 0 7 -9 23 -20 37 -24 30 -26 85 -5 103 8 7 15 16 15 21 0 5 20 40 44 77 24
38 56 94 72 125 15 32 31 57 36 57 4 0 8 6 8 13 0 7 20 44 45 82 25 39 45 74
45 78 0 4 15 31 33 60 54 86 81 143 74 158 -4 8 -18 32 -31 54 -14 22 -31 51
-39 65 -34 61 -152 266 -167 290 -5 8 -24 42 -43 75 -75 134 -90 160 -99 163
-24 10 6 101 59 179 11 15 23 35 27 43 3 8 17 33 30 55 14 22 39 68 56 103 18
34 36 62 40 62 4 0 15 17 24 38 9 20 27 54 39 74 12 21 32 55 44 77 44 79 48
86 55 91 4 3 13 19 20 35 7 17 20 40 28 53 l15 22 344 0 344 0 -7 -32z"/>
<path d="M2289 3632 c-77 -50 -114 -112 -66 -112 37 0 67 -39 67 -89 0 -34 -6
-49 -29 -72 -34 -33 -46 -35 -90 -13 -47 24 -57 9 -53 -82 2 -70 26 -163 56
-218 78 -144 210 -196 334 -132 28 15 52 30 52 34 0 4 12 21 28 38 58 64 100
175 109 288 6 75 5 79 -13 71 -10 -4 -39 -10 -64 -12 -75 -8 -122 48 -105 126
8 39 40 71 63 64 56 -14 23 64 -43 103 -35 20 -63 27 -122 31 -73 4 -81 3
-124 -25z"/>
<path d="M1911 3089 c-186 -74 -369 -235 -473 -417 -51 -89 -66 -122 -91 -197
-49 -151 -64 -362 -29 -405 17 -21 27 -23 118 -23 229 -1 418 70 616 229 79
64 179 177 209 237 12 23 28 49 36 58 15 17 35 132 27 152 -2 7 -26 24 -52 39
-101 56 -177 131 -231 227 -28 50 -51 95 -51 101 0 12 -47 12 -79 -1z"/>
<path d="M2799 3098 c0 -2 -2 -10 -4 -18 -7 -35 -50 -138 -70 -170 -26 -42
-113 -111 -187 -149 -52 -27 -53 -29 -56 -75 -6 -86 79 -230 207 -354 65 -62
110 -96 226 -169 113 -72 229 -103 406 -110 89 -4 142 -2 156 5 74 40 -4 491
-104 600 -7 7 -13 17 -13 22 0 41 -201 252 -310 325 -81 55 -174 95 -221 95
-16 0 -29 -1 -30 -2z"/>
<path d="M2383 2413 c-7 -2 -13 -9 -13 -15 0 -13 -55 -84 -97 -125 -18 -18
-33 -37 -33 -41 0 -7 -55 -52 -89 -72 -27 -16 -3 -38 46 -45 26 -3 82 -11 124
-17 56 -8 100 -8 175 1 137 16 154 20 154 37 0 8 -30 45 -67 82 -36 37 -86 94
-111 127 -54 74 -62 80 -89 68z"/>
<path d="M1923 2008 c-17 -22 -24 -95 -10 -105 37 -28 276 -80 407 -88 130 -8
406 24 475 54 11 5 39 14 63 20 45 13 47 17 36 83 -8 45 -19 50 -69 31 -51
-18 -171 -43 -211 -43 -16 0 -35 -5 -41 -11 -8 -8 -61 -12 -150 -12 -145 -1
-300 22 -427 64 -70 23 -61 22 -73 7z"/>
<path d="M1894 1725 c-10 -24 9 -107 26 -116 88 -46 422 -85 590 -69 224 21
373 53 392 83 4 7 8 33 8 59 0 57 -17 66 -81 42 -40 -15 -80 -22 -279 -53 -36
-6 -97 -11 -136 -11 -101 0 -367 38 -426 61 -59 23 -87 24 -94 4z"/>
<path d="M1970 1415 c0 -27 39 -94 63 -107 60 -33 426 -49 611 -27 127 15 144
23 172 83 12 27 21 53 18 57 -2 4 -17 4 -32 -1 -59 -19 -371 -50 -443 -44
-168 13 -362 39 -379 49 -6 4 -10 -1 -10 -10z"/>
<path d="M2183 1085 c11 -21 79 -79 157 -134 43 -31 91 -32 122 -4 13 11 31
23 41 26 9 4 17 10 17 15 0 5 19 22 43 38 48 33 57 43 57 65 0 15 -24 17 -225
17 l-225 0 13 -23z"/>
</g>
</svg>
